<svg xmlns="http://www.w3.org/2000/svg" viewBox="0 0 267.1 216.6"><defs><style>.cls-1{fill:#fff;}.cls-2{fill:#000091;}.cls-3{fill:#e1000f;}.cls-4{fill:#9c9b9b;}</style></defs><title>RF</title><g id="Fond"><rect class="cls-1" width="267.1" height="217.11"/></g><g id="Calque_1" data-name="Calque 1"><path id="Devise_Républicaine" data-name="Devise Républicaine" d="M100.6,181.4c.5,0,1,.5.8,1.6l-2.7.6c.4-1.2,1.2-2.2,1.9-2.2m1.4,4.4h-.5c-.7.7-1.4,1.4-2.1,1.4s-1.1-.5-1.1-1.4a4.5,4.5,0,0,1,.1-1.2l4.3-1.4c.9-2-.1-2.9-1.3-2.9s-4.4,3.4-4.4,6.4c0,1.3.7,2.1,1.6,2.1s2.4-1.2,3.4-3m-.8-6.3,3-2.8v-.4h-1.6l-1.9,3.2Zm-9.3,2h1.4L91,187.7a.8.8,0,0,0,.6,1.1,5.5,5.5,0,0,0,4.2-3.1h-.5a4.6,4.6,0,0,1-2.6,1.6l2.1-5.8h2.1l.3-.9H95.1l.8-2.2h-.8l-1.5,2.2-1.7.2Zm-2-.3c.2-.6-.2-.9-.5-.9a4,4,0,0,0-3.3,2.7h.4a3,3,0,0,1,1.7-1.3l-2.4,6.2a.7.7,0,0,0,.6.9c1.1,0,2.5-1.2,3.1-2.7h-.4a3.6,3.6,0,0,1-1.7,1.3Zm.5-3.1a1.1,1.1,0,0,0,1-1.1,1.1,1.1,0,0,0-1-1,1.1,1.1,0,0,0-1.1,1,1.1,1.1,0,0,0,1.1,1.1m-13.8,9.5a.8.8,0,0,0,.7,1.2c.5,0,.6-.1.8-.6l1.7-4.4a5.8,5.8,0,0,1,2.9-1.9c.5,0,.4.4.1.9l-2.5,4.9a.7.7,0,0,0,.6,1.1,4.1,4.1,0,0,0,3.3-2.7h-.4a3.6,3.6,0,0,1-1.7,1.3l2.2-4.4a3.4,3.4,0,0,0,.4-1.5,1.1,1.1,0,0,0-1.2-1.2c-1,0-2.1,1.2-3.4,2.7v-1.2c0-.8-.3-1.5-1-1.5a1.9,1.9,0,0,0-1.4,1h0c.8,0,1.2,1.2.6,2.5Zm0-5.4c.3-1,.1-1.9-.6-1.9s-1.2.7-2.1,2.7v-1.2c0-.8-.3-1.5-1-1.5s-1.7,1.3-2.3,2.7H71c.4-.6.8-1,1.1-1s.6.6,0,1.9l-1.7,3.7a.8.8,0,0,0,.7,1.2c.5,0,.6-.1.8-.6l1.7-4.4a10.7,10.7,0,0,1,1.4-1.6Zm-9.6-.8c.6,0,1.1.5.9,1.6l-2.7.6c.4-1.2,1.2-2.2,1.8-2.2m1.5,4.4H68c-.7.7-1.4,1.4-2.1,1.4s-1.1-.5-1.1-1.4a4.5,4.5,0,0,1,.1-1.2l4.3-1.4c.9-2-.1-2.9-1.3-2.9s-4.4,3.4-4.4,6.4c0,1.3.6,2.1,1.6,2.1s2.4-1.2,3.4-3m-10.1-4.3h1.4l-2.3,6.2a.8.8,0,0,0,.6,1.1,5.2,5.2,0,0,0,4.1-3.1h-.4a4.6,4.6,0,0,1-2.6,1.6l2.1-5.8h2.1l.3-.9H61.6l.8-2.2h-.8l-1.5,2.2-1.7.2Zm-7.9,4.8c0-1.9,2.1-4.5,3.3-4.5h.7l-1.2,3.3c-.7.9-1.8,2-2.3,2s-.5-.3-.5-.9m6.5-6.4h-.6l-.7.7h-.2c-3.6,0-6.6,4-6.6,6.9a1.2,1.2,0,0,0,1.3,1.3c.9,0,1.8-1.3,2.8-2.7v.4c-.1,1.5.4,2.3,1.1,2.3s1.7-1.4,2.3-2.7h-.4c-.4.6-.8.9-1.1.9s-.6-.6,0-1.8Zm-7.5,2.3c.3-1,.1-1.9-.7-1.9s-1.1.7-2.1,2.7v-1.2c0-.8-.2-1.5-1-1.5s-1.6,1.3-2.2,2.7h.4c.4-.6.8-1,1.1-1s.6.6,0,1.9l-1.7,3.7c-.3.7,0,1.2.7,1.2s.6-.1.8-.6l1.6-4.4a11.4,11.4,0,0,1,1.5-1.6Zm-12,6.2.2-.4c-2.1-.4-2.3-.4-1.5-2.7L37,183h2.3c1,0,1.1.4.9,1.5h.6l1.4-3.7h-.6c-.5.9-.9,1.5-2.1,1.5H37.3l1.2-3.3c.3-1,.6-1.2,2-1.2h1c1.4,0,1.6.4,1.6,1.8h.6l.4-2.5H35.5v.5c1.7.3,1.8.5,1,2.6l-1.8,5.1c-.8,2.2-1.1,2.3-3.1,2.7v.4ZM79.7,162c.6,0,1.1.4.8,1.5l-2.7.6c.5-1.2,1.3-2.1,1.9-2.1m1.5,4.3h-.6a2.9,2.9,0,0,1-2.1,1.4c-.7,0-1.1-.4-1.1-1.4a5,5,0,0,1,.2-1.2l4.3-1.4c.8-2-.2-2.9-1.4-2.9s-4.3,3.4-4.3,6.4c0,1.4.6,2.1,1.6,2.1s2.4-1.1,3.4-3m-.9-6.3,3.1-2.8v-.3H81.7L79.8,160ZM71,162h1.4l-2.2,6.2c-.2.6,0,1.1.6,1.1a5.3,5.3,0,0,0,4.1-3h-.4a6.3,6.3,0,0,1-2.6,1.6l2-5.9h2.2l.2-.9h-2l.8-2.2h-.9l-1.4,2.2-1.8.3Zm-1.9-.3c.1-.6-.2-.9-.5-.9a4,4,0,0,0-3.4,2.7h.4a2.9,2.9,0,0,1,1.8-1.3L65,168.4c-.2.6.2.9.5.9a3.9,3.9,0,0,0,3.2-2.7h-.4a2.9,2.9,0,0,1-1.8,1.3Zm.4-3.1a.9.9,0,0,0,1-1,1,1,0,1,0-2,0,.9.9,0,0,0,1,1m-8.3,9.3,4.4-11.4h-.2l-2.7.3v.3l.5.4c.5.4.4.7-.1,1.9l-3.4,8.9a.8.8,0,0,0,.6,1.1,3.8,3.8,0,0,0,3.2-2.7h-.4a3.1,3.1,0,0,1-1.9,1.3m-8.2-1c0-2,2.1-4.6,3.3-4.6H57l-1.2,3.4c-.7.8-1.8,1.9-2.4,1.9s-.4-.3-.4-.8m6.5-6.4h-.6l-.8.7H58c-3.6,0-6.6,4-6.6,6.9a1.2,1.2,0,0,0,1.2,1.3c1,0,1.9-1.3,2.9-2.7v.5c-.1,1.4.3,2.2,1.1,2.2s1.6-1.4,2.3-2.7h-.4c-.5.6-.9,1-1.2,1s-.5-.6,0-1.9ZM43.7,170.8c0-.8.8-1.3,1.9-1.8l1.7.6c1.2.4,1.6.6,1.6,1s-1.3,1.3-3,1.3-2.2-.3-2.2-1.1m3.2-5c-.5,0-.7-.5-.7-1s.7-3.4,1.9-3.4.7.4.7.9-.7,3.5-1.9,3.5m3.4,4.2c0-1-.9-1.3-2.4-1.8s-1.8-.4-1.8-.8a1.1,1.1,0,0,1,.8-1,3.7,3.7,0,0,0,3.4-3.5,2.4,2.4,0,0,0-.2-.9h1.7l.3-.9H49.4l-1.1-.3a3.6,3.6,0,0,0-3.6,3.5,1.9,1.9,0,0,0,1.6,2c-1,.5-1.5,1-1.5,1.6a1.1,1.1,0,0,0,.4.9c-2.3.7-3.3,1.4-3.3,2.5s1.4,1.6,3.1,1.6,5.3-1.6,5.3-2.9m-10.9-6.6c1,0,1,.4.9,1.5h.6l1.3-3.7h-.6c-.5.8-.9,1.5-2,1.5H37.3l1.2-3.1c.3-1.1.6-1.3,2-1.3h1c1.4,0,1.6.4,1.6,1.9h.6l.4-2.6H35.5v.5c1.7.3,1.8.5,1,2.6l-1.8,5.1c-.8,2.2-1.1,2.4-3.1,2.7v.5H41l1.7-2.7H42a6.3,6.3,0,0,1-4.4,2c-2.5,0-2.3-.1-1.4-2.5l.9-2.4Zm1.2-6.6,3.1-2v-.4H41.8l-1.7,2.4Zm38.1-14.3c.6,0,1.1.4.8,1.5l-2.7.7c.5-1.3,1.3-2.2,1.9-2.2m1.5,4.3h-.6a3,3,0,0,1-2.1,1.4c-.7,0-1.1-.4-1.1-1.4s.1-.8.1-1.2l4.4-1.4c.8-2-.2-2.9-1.4-2.9s-4.4,3.5-4.4,6.4.7,2.1,1.7,2.1,2.4-1.1,3.4-3m-.9-6.3,3-2.8v-.3H80.7l-1.9,3.1Zm-8.9,2h1.1l-2.3,6.3a.7.7,0,0,0,.7,1,5.4,5.4,0,0,0,4.1-3h-.4a6.1,6.1,0,0,1-2.7,1.6l2.1-5.9h2.2l.2-.8h-2l.7-2.3h-.8l-1.5,2.3-1.4.2Zm-1.1.7c.3-1,.1-1.9-.7-1.9s-1.1.7-2.1,2.8v-1.2c0-.8-.2-1.6-1-1.6s-1.7,1.4-2.3,2.7h.4q.7-.9,1.2-.9c.3,0,.5.5,0,1.8l-1.7,3.8c-.3.7,0,1.1.7,1.1a.7.7,0,0,0,.8-.5l1.6-4.4,1.4-1.7Zm-9.6-.7c.6,0,1.1.4.8,1.5l-2.7.7c.5-1.3,1.3-2.2,1.9-2.2m1.5,4.3h-.6a2.9,2.9,0,0,1-2.1,1.4c-.7,0-1.1-.4-1.1-1.4a5,5,0,0,1,.2-1.2l4.3-1.4c.8-2-.2-2.9-1.4-2.9s-4.3,3.5-4.3,6.4.6,2.1,1.6,2.1,2.4-1.1,3.4-3m-10.6,1.8c-.4,0-1-.4-1-.8s.2-.6.4-1.2l.7-1.8c.7-.9,1.9-1.9,2.5-1.9s.7.3.7.9-1.6,4.8-3.3,4.8m4.9-5.5c0-1.3-.5-1.8-1.3-1.8s-2.2,1.2-3.2,2.6l2.6-6.8v-.2l-2.8.3v.3l.6.4c.5.4.3.8-.1,1.9L48.4,147a13,13,0,0,0-.5,1.4c0,.7,1,1.4,1.9,1.4s5.7-3.8,5.7-6.7m-8.5-.9a.6.6,0,0,0-.5-.9,4.2,4.2,0,0,0-3.3,2.7h.4a3.6,3.6,0,0,1,1.7-1.3l-2.4,6.2a.7.7,0,0,0,.6.9,3.9,3.9,0,0,0,3.1-2.7h-.4a3,3,0,0,1-1.7,1.3Zm.5-3.1a1,1,0,0,0,0-2,1,1,0,1,0,0,2m-6.3-1H35.5v.5c1.6.4,1.8.5,1,2.7l-1.8,5.1c-.8,2.1-1.1,2.3-3.1,2.6v.5H40l1.9-3.3h-.7c-1,1.1-2.3,2.6-4.2,2.6s-1.6-.2-.8-2.4l1.8-5.1c.8-2.2,1.1-2.3,3-2.7Z"/><path d="M31.4,91.5V70.9h6.3a8.1,8.1,0,0,1,5.4,1.6,5.6,5.6,0,0,1,2,4.5,6,6,0,0,1-.9,3.3,6.1,6.1,0,0,1-2.4,2.1l6.4,9.1h-5l-5.5-8.3H35.6v8.3Zm6.5-17.1H35.6v5.2h2.3a2.8,2.8,0,0,0,2.1-.7,2.4,2.4,0,0,0,.8-1.9,2.6,2.6,0,0,0-.8-1.9A3.3,3.3,0,0,0,37.9,74.4Z"/><path d="M50.8,91.5V70.9H62.9v3.5H55v4.8h6.7v3.6H55v5.1h7.9v3.6Zm7.9-22.4H54.9l3.3-4h4.4Z"/><path d="M67.7,91.5V70.9h6.9a8,8,0,0,1,5.3,1.6,6.1,6.1,0,0,1,0,9,8,8,0,0,1-5.3,1.7H71.9v8.3Zm7-17.1H71.9v5.2h2.8a2.8,2.8,0,0,0,2.1-.7,2.4,2.4,0,0,0,.8-1.9,2.6,2.6,0,0,0-.8-1.9A3.3,3.3,0,0,0,74.7,74.4Z"/><path d="M97.5,83.8V70.9h4.2V83.4a9,9,0,0,1-2.3,6.4,9.2,9.2,0,0,1-12.2,0A8.9,8.9,0,0,1,85,83.4V70.9h4.2V83.8A4.2,4.2,0,0,0,90.3,87a3.9,3.9,0,0,0,3,1.2A4.1,4.1,0,0,0,96.4,87,4.6,4.6,0,0,0,97.5,83.8Z"/><path d="M106.9,91.5V70.9h5.9a7.6,7.6,0,0,1,5,1.5,5,5,0,0,1,1.9,4.1,4.6,4.6,0,0,1-.6,2.3,4.4,4.4,0,0,1-1.6,1.7,5.8,5.8,0,0,1,2.5,2.1,4.7,4.7,0,0,1,.9,2.8,5.4,5.4,0,0,1-2.1,4.5,8.7,8.7,0,0,1-5.6,1.6Zm5.9-17.1h-1.7V79h1.7a2.9,2.9,0,0,0,1.9-.6,2.4,2.4,0,0,0,0-3.4A2.9,2.9,0,0,0,112.8,74.4Zm.6,8.2h-2.3v5.3h2.3a3.2,3.2,0,0,0,2.3-.7,2.4,2.4,0,0,0,.9-2,2.5,2.5,0,0,0-.9-2A3.7,3.7,0,0,0,113.4,82.6Z"/><path d="M125.1,91.5V70.9h4.2V87.7h7.9v3.8Z"/><path d="M140.9,91.5V70.9h4.2V91.5Z"/><path d="M168.2,91a7.2,7.2,0,0,0,2.2,1.5,5.4,5.4,0,0,0,2.1.5h.7l.8-.2v3.6l-1,.3h-1.2a8.8,8.8,0,0,1-3.3-.7,12.6,12.6,0,0,1-3.2-2.1l-2.4-2.1-1.4.2H160a10.5,10.5,0,0,1-4.4-.9,12.5,12.5,0,0,1-3.5-2.3,11.3,11.3,0,0,1-3-7.7,11.3,11.3,0,0,1,3-7.7,10.7,10.7,0,0,1,3.5-2.3,10.5,10.5,0,0,1,4.4-.9,11,11,0,0,1,4.5.9,11.8,11.8,0,0,1,3.5,2.3,11.3,11.3,0,0,1,3,7.7,11.3,11.3,0,0,1-1.1,4.8,10.2,10.2,0,0,1-3,3.8ZM160,88.2a7.2,7.2,0,0,0,4.8-2,10.2,10.2,0,0,0,1.4-2.2,8.1,8.1,0,0,0,0-5.6,8.3,8.3,0,0,0-1.4-2.2,8,8,0,0,0-2.1-1.5,7.6,7.6,0,0,0-2.7-.5,7.5,7.5,0,0,0-2.6.5,5.7,5.7,0,0,0-2.1,1.5,6.4,6.4,0,0,0-1.4,2.2,8.1,8.1,0,0,0,0,5.6,7.4,7.4,0,0,0,1.4,2.2,4.6,4.6,0,0,0,2.1,1.4A5.8,5.8,0,0,0,160,88.2Z"/><path d="M187.2,83.8V70.9h4.2V83.4a9,9,0,0,1-2.3,6.4,9.2,9.2,0,0,1-12.2,0,9,9,0,0,1-2.3-6.4V70.9h4.2V83.8A4.2,4.2,0,0,0,180,87a3.8,3.8,0,0,0,3,1.2,4.1,4.1,0,0,0,3.1-1.2A4.6,4.6,0,0,0,187.2,83.8Z"/><path d="M196.6,91.5V70.9h12v3.5h-7.8v4.8h6.6v3.6h-6.6v5.1h7.8v3.6Z"/><path d="M31.4,122.7V102.1h12v3.5H35.6v4.8h6.7V114H35.6v8.7Z"/><path d="M47.1,122.7V102.1h6.3a8.1,8.1,0,0,1,5.4,1.6,5.6,5.6,0,0,1,2,4.5,6,6,0,0,1-.9,3.3,6.1,6.1,0,0,1-2.4,2.1l6.5,9.1H59l-5.5-8.3H51.3v8.3Zm6.6-17.1H51.3v5.2h2.4a2.6,2.6,0,0,0,2-.7,2.4,2.4,0,0,0,.8-1.9,2.6,2.6,0,0,0-.8-1.9A3,3,0,0,0,53.7,105.6Z"/><path d="M64.9,122.7l7.8-20.6h5.5L86,122.7H81.5l-2-5.4H71.3l-2,5.4Zm7.7-8.9h5.6L75.4,106Z"/><path d="M89.2,122.7V102.1h5.3l9.3,14.7V102.1H108v20.6h-5.4l-9.3-14.8v14.8Z"/><path d="M122.9,119.4a6.6,6.6,0,0,0,3.2-.8,7,7,0,0,0,2.2-2l3.3,2.5a8.7,8.7,0,0,1-3,2.7,10.6,10.6,0,0,1-4,1.4l-2.6,4.3h-3.7l2.6-4.4a10.8,10.8,0,0,1-3.7-1.3,13.1,13.1,0,0,1-2.8-2.4,10.6,10.6,0,0,1-1.8-3.3,11.5,11.5,0,0,1-.6-3.7,11.3,11.3,0,0,1,3-7.7,10.7,10.7,0,0,1,3.5-2.3,10.5,10.5,0,0,1,4.4-.9,11.9,11.9,0,0,1,5.1,1.1,9.9,9.9,0,0,1,3.6,3.1l-3.3,2.5a7,7,0,0,0-2.2-2,6.6,6.6,0,0,0-3.2-.8,7.5,7.5,0,0,0-2.6.5,7.1,7.1,0,0,0-2.2,1.5,8,8,0,0,0-1.3,2.2,8.1,8.1,0,0,0,0,5.6,9.8,9.8,0,0,0,1.3,2.2,5.5,5.5,0,0,0,2.2,1.4A5.8,5.8,0,0,0,122.9,119.4Z"/><path d="M132.5,122.7l7.8-20.6h5.5l7.8,20.6h-4.4l-2-5.4H139l-2,5.4Zm7.8-8.9h5.6l-2.8-7.8Z"/><path d="M156.8,122.7V102.1H161v20.6Z"/><path d="M164.9,119.9l3.1-2.8a7.2,7.2,0,0,0,2.1,1.8,4.5,4.5,0,0,0,2.5.7,2.9,2.9,0,0,0,1.9-.6,2.3,2.3,0,0,0,.7-1.8,2.3,2.3,0,0,0-1.5-2.1l-3.2-1.6a14.2,14.2,0,0,1-3.3-2.1,5.3,5.3,0,0,1-1.4-3.9,4.6,4.6,0,0,1,.5-2.3,5.3,5.3,0,0,1,1.3-2,7.2,7.2,0,0,1,2.1-1.2,5.9,5.9,0,0,1,2.7-.5,9.1,9.1,0,0,1,4.1.9,11,11,0,0,1,3.1,2.6l-3.1,2.7a8.5,8.5,0,0,0-1.9-1.9,4.4,4.4,0,0,0-2.2-.7,2.1,2.1,0,0,0-1.7.7,1.8,1.8,0,0,0-.7,1.5,2.3,2.3,0,0,0,1.5,2.1l3.2,1.6a11.9,11.9,0,0,1,3.3,2.2,5,5,0,0,1,1.5,3.9,9.9,9.9,0,0,1-.6,2.6,7.5,7.5,0,0,1-1.5,2,7.2,7.2,0,0,1-2.1,1.2,8,8,0,0,1-2.7.4,9.9,9.9,0,0,1-4.4-.9A10.3,10.3,0,0,1,164.9,119.9Z"/><path d="M183.9,122.7V102.1h12v3.5H188v4.8h6.7V114H188v5.1h7.9v3.6Z"/><g id="Marianne"><path id="Fond-2" data-name="Fond" class="cls-1" d="M63.6,53.3l.9-.9h0a15.3,15.3,0,0,1,1.8-1.8l.6-.5a.3.3,0,0,0,.1-.2l-.7.4s-.1,0,0-.1l.5-.4h-.1a2,2,0,0,0-1.7.8h-.2c-.8.3-1.4,1-2.2,1.3h0l-1,.4a5.6,5.6,0,0,1-1.3,0l-2,.4h0l-1,.4h-.1a.1.1,0,0,1-.1.1l-.3.3a7.1,7.1,0,0,0-.9.7h-.1l-.9.9h-.1c.1,0,.1-.1.2-.2a.3.3,0,0,1,.1-.2.8.8,0,0,0,.2-.4h0l.9-.6h0a.1.1,0,0,1-.1-.1h-.2c-.1.2-.2.4-.4.4h0a.1.1,0,0,1,.1-.1h0l.4-.3h0l.6-.4h.1l-.9.4h-.1s0,.1-.1,0h0l.3-.3H56c1.7-1.3,4.1-1,6.1-1.7l.5-.3c.2-.1.4-.4.8-.5a3,3,0,0,0,.9-1.3h-.1A7.6,7.6,0,0,1,61.9,50a9.1,9.1,0,0,1-3.6.6h.3c0-.1.1-.2.2-.3H59a.1.1,0,0,1,.1-.1h.2c-.2-.2-.5.2-.8,0s.1-.2.2-.3h.2a.3.3,0,0,1,.1-.2c.8-.5,1.6-.8,2.3-1.3s-.2.2-.4.1,0-.2.1-.2a12.2,12.2,0,0,0,1.7-.7c-.2,0-.4.2-.6,0h.3v-.2a.1.1,0,0,1,.1-.1h-.1l.3-.2h-.1a.8.8,0,0,1,.7-.3c-.1-.1-.3,0-.3-.1s.1-.1.2-.1H63a.1.1,0,0,1,0-.2,6.9,6.9,0,0,0,.5-1.3h-.1a5.7,5.7,0,0,1-2.2,1.1h-.3a1,1,0,0,1-.9-.1l-.5-.4-1.4-.7A14,14,0,0,0,54,44a10.5,10.5,0,0,1,1.9-.5,6.2,6.2,0,0,1,2.7-.5c-.2-.1-.4,0-.5,0a6.1,6.1,0,0,0-2.3.3l-1.6.4c-.3.1-.5.5-.8.4v-.2a3.1,3.1,0,0,1,2-1.3,8.7,8.7,0,0,1,2.8.1l2.1.4c.2,0,.3.4.5.5s.6,0,1,.2-.1-.2,0-.3.4,0,.7-.1-.4-.7-.6-1.1h0a6.4,6.4,0,0,0,1.3,1c.3.2.9.3.8,0a9.5,9.5,0,0,0-1.2-1.6v-.2h-.2V41c-.2-.1-.1-.3-.3-.4s0-.7-.1-1a2.9,2.9,0,0,1-.2-.9,23.8,23.8,0,0,1-.5-2.6c-.1-1,.6-1.8,1.1-2.7a3.5,3.5,0,0,1,1.5-1.7,3.7,3.7,0,0,1,1-1.7,3.3,3.3,0,0,1,1.6-1.1l1.5-.6H78.9l.2.2.8.4a2.7,2.7,0,0,1,1,.8c.1.2.3.5.2.7s-.2.7-.4.8a2.5,2.5,0,0,1-1.2.2l-.6-.2A4.5,4.5,0,0,1,81,32.7l.5.2h0c-.1.1-.2.2-.1.3h.1c.3-.1.2-.6.6-.4a.5.5,0,0,1,.2.8l-.6.5a.3.3,0,0,0,0,.4l.3.6.3,1.2a6.7,6.7,0,0,1,.4,2.4c0,.4-.2.8-.1,1.2a13.4,13.4,0,0,0,.6,1.2,2.1,2.1,0,0,1,.6.8c.3.5.9,1.1.7,1.7s-.8.3-1.2.6,0,.7.2.9-.4.8-.7,1,.3.1.3.2.4.4.2.7-.9.5-.5,1,0,.8-.1,1.1a1.3,1.3,0,0,1-1,.8,1.2,1.2,0,0,1-1,.1h-.3a25.1,25.1,0,0,0-2.7-.4l-.8.2-.6.6H76l-.4.6h0c0,.1,0,.1-.1.1l-.4,1c-.3,1.2-.2,2.3.1,2.5s1.8.6,2.9,1.2l1.3.6h-22a37.6,37.6,0,0,1,3.5-1.8,9.2,9.2,0,0,0,2.7-1.6m-8.2-3.8c-.1,0-.3.1-.3,0s.4-.3.7-.4.2-.2.3-.1l.4.2c-.3.3-.7.2-1.1.3m-8.2-1.2h-.1a15.9,15.9,0,0,0,1.8-2.7A11.9,11.9,0,0,0,50.7,44a9.9,9.9,0,0,1,3-2.4,2.3,2.3,0,0,1,1.4.1c-.2.2-.5.2-.7.3h-.1v-.2c-.5.6-1.3.9-1.7,1.6s-.5,1.2-1.2,1.3,0-.1-.1-.1a24.1,24.1,0,0,0-4.1,3.7m4.4-3.5c0,.1-.1.1-.1.2s-.1.2-.2.2h-.1c0-.2.2-.5.4-.5h0m2.5,8c0,.1-.1.1-.1.2s.1,0,.1.1l-.4.2a.1.1,0,0,0-.1.1h-.2c-.1.1-.4.1-.3,0l.4-.4c.1-.1.2-.1.2-.2h.4m-.9-.4h0l-.7.4-.7.3h-.1l-.5.4h-.3a.1.1,0,0,1-.1.1h-.1c0,.1,0,.1-.1.1h-.1c-.1.1-.2.1-.2.2l-.3.3h-.3l.2-.2h.2a.2.2,0,0,1,.2-.2h0a.1.1,0,0,1,.1-.1h0c.1-.1.1-.1.1-.2h0c.1-.1.2-.2.2-.3h0l-.2.2a.1.1,0,0,1-.1-.1.1.1,0,0,0,.1-.1h.1l.2-.3H51v-.2h0c.6-.5,1.4-.4,2.1-.8s.6.1.8,0h.5l-1.3.9m1.1-3.7c-.1-.1.1,0,.2-.2H54l-.9.3-1.1.4a14,14,0,0,1-1.7.9c-.1,0-.1,0-.1-.1l.4-.3h0a6.6,6.6,0,0,1,1.5-1.4v-.2a3.4,3.4,0,0,0,.6-.6.8.8,0,0,1,.5-.5H53c-.2,0-.4.1-.6-.1l.3-.2h-.1c-.1-.2.1-.3.3-.3l.6-.2c-.4-.1-.8.1-1.2-.1a2.8,2.8,0,0,1,1.4-1.6h.1c0,.3-.1.5-.4.5l1.3.4a.1.1,0,0,1-.2,0c.2.2.6.1.8.3s-.3,0-.4,0c1.6.5,3.4.8,4.8,1.9A12.1,12.1,0,0,1,56,48.4h-.5c-.2,0-.4,0-.5.2h-.7"/><path id="Rouge" class="cls-2" d="M63.6,53.3l.9-.9h0a15.3,15.3,0,0,1,1.8-1.8l.6-.5a.3.3,0,0,0,.1-.2l-.7.4s-.1,0,0-.1l.5-.4h-.1a2,2,0,0,0-1.7.8h-.2c-.8.3-1.4,1-2.2,1.3h0l-1,.4a5.6,5.6,0,0,1-1.3,0l-2,.4h0l-1,.4h-.1a.1.1,0,0,1-.1.1l-.3.3-.9.7a.1.1,0,0,0-.1.1l-.9.8h-.1c.1,0,.1-.1.2-.2a.3.3,0,0,1,.1-.2.8.8,0,0,0,.2-.4h0l.9-.6h0a.1.1,0,0,1-.1-.1h-.2c-.1.2-.2.4-.4.4h0a.1.1,0,0,1,.1-.1h0l.4-.3h0l.6-.4h.1l-.9.4h-.1s0,.1-.1,0h0l.3-.3H56c1.7-1.3,4.1-1,6.1-1.7l.5-.3c.2-.1.4-.4.8-.5a3,3,0,0,0,.9-1.3h-.1A7.6,7.6,0,0,1,61.9,50a9.1,9.1,0,0,1-3.6.6h.3c0-.1.1-.2.2-.3H59a.1.1,0,0,1,.1-.1h.2c-.2-.2-.5.2-.8,0s.1-.2.2-.3h.2a.3.3,0,0,1,.1-.2c.8-.5,1.6-.8,2.3-1.3s-.2.2-.4.1,0-.2.1-.2a12.2,12.2,0,0,0,1.7-.7c-.2,0-.4.2-.6,0h.3v-.2a.1.1,0,0,1,.1-.1h-.1l.3-.2h-.1a.8.8,0,0,1,.7-.3c-.1-.1-.3,0-.3-.1s.1-.1.2-.1H63a.1.1,0,0,1,0-.2,6.9,6.9,0,0,0,.5-1.3h-.1a5.7,5.7,0,0,1-2.2,1.1h-.3a1,1,0,0,1-.9-.1l-.5-.4-1.4-.7A14,14,0,0,0,54,44a10.5,10.5,0,0,1,1.9-.5,6.2,6.2,0,0,1,2.7-.5c-.2-.1-.4,0-.5,0a6.1,6.1,0,0,0-2.3.3l-1.6.4c-.3.1-.5.5-.8.4v-.2a3.1,3.1,0,0,1,2-1.3,8.7,8.7,0,0,1,2.8.1l2.1.4c.2,0,.3.4.5.5s.6,0,1,.2-.1-.2,0-.3.4,0,.7-.1-.4-.7-.6-1.1h0c.5.3.8.8,1.3,1s.9.3.8,0a9.5,9.5,0,0,0-1.2-1.6v-.2h-.2V41c-.2-.1-.1-.3-.2-.4s-.1-.7-.2-1a2.9,2.9,0,0,1-.2-.9,23.8,23.8,0,0,1-.5-2.6c-.1-1,.6-1.8,1.1-2.7a3.5,3.5,0,0,1,1.5-1.7,3.7,3.7,0,0,1,1-1.7,3.3,3.3,0,0,1,1.6-1.1l1.5-.6H31.4V56.7h26a37.6,37.6,0,0,1,3.5-1.8,9.2,9.2,0,0,0,2.7-1.6m-8.2-3.8c-.1,0-.3.1-.3,0s.4-.3.7-.4.2-.2.3-.1l.4.2c-.3.3-.7.2-1.1.3m-8.2-1.2h-.1a15.9,15.9,0,0,0,1.8-2.7A8.4,8.4,0,0,0,50.7,44a9.9,9.9,0,0,1,3-2.4,2.3,2.3,0,0,1,1.4.1c-.2.2-.5.2-.7.3h-.1v-.2c-.5.6-1.3.9-1.7,1.6s-.5,1.2-1.2,1.3,0-.1-.1-.1a24.1,24.1,0,0,0-4.1,3.7m4.4-3.5c0,.1-.1.1-.1.2s-.1.2-.2.2h-.1c0-.2.2-.5.4-.5h0m2.5,8c0,.1-.1.1-.1.2s.1,0,.1.1l-.4.2h-.3c-.1.1-.4.1-.3,0l.4-.4c.1-.1.2-.1.2-.2a.1.1,0,0,0,.1-.1h.3m-.9-.4h0l-.7.4-.7.3h-.1l-.5.4h-.3a.1.1,0,0,1-.1.1h-.1c0,.1,0,.1-.1.1h-.1c-.1.1-.2.1-.2.2l-.3.3h-.3l.2-.2h.2a.2.2,0,0,1,.2-.2h0a.1.1,0,0,1,.1-.1h0c.1-.1.1-.1.1-.2h0c.1-.1.2-.2.2-.3h0l-.2.2a.1.1,0,0,1-.1-.1.1.1,0,0,0,.1-.1h.1l.2-.3H51v-.2h0c.6-.5,1.4-.4,2.1-.8s.6.1.8,0h.5l-1.3.9m1.1-3.7c-.1-.1.1,0,.2-.2H54l-.9.3-1.1.4a14,14,0,0,1-1.7.9c-.1,0-.1,0-.1-.1l.4-.3h0a6.6,6.6,0,0,1,1.5-1.4v-.2a3.4,3.4,0,0,0,.6-.6.8.8,0,0,1,.5-.5H53c-.2,0-.4.1-.6-.1l.3-.2h-.1c-.1-.2.1-.3.3-.3l.6-.2c-.4-.1-.8.1-1.2-.1a2.8,2.8,0,0,1,1.4-1.6h.1c0,.3-.1.5-.4.5l1.3.4a.1.1,0,0,1-.2,0c.2.2.6.1.8.3s-.3,0-.4,0c1.6.5,3.4.8,4.8,1.9A12.1,12.1,0,0,1,56,48.4h-.5c-.2,0-.4,0-.5.2h-.7"/><path id="Bleu" class="cls-3" d="M109.3,28.3H78.9l.2.2.8.4a2.7,2.7,0,0,1,1,.8c.1.2.3.5.2.7s-.2.7-.4.8a2.5,2.5,0,0,1-1.2.2l-.6-.2A4.5,4.5,0,0,1,81,32.7l.5.2h0c-.1.1-.2.2-.1.3h.1c.3-.1.2-.6.6-.4a.5.5,0,0,1,.2.8l-.6.5a.3.3,0,0,0,0,.4l.3.6.3,1.2a6.7,6.7,0,0,1,.4,2.4c0,.4-.2.8,0,1.2a4.3,4.3,0,0,0,.5,1.2,2.1,2.1,0,0,1,.6.8c.4.5.9,1.1.7,1.7s-.8.3-1.2.6,0,.7.2.9-.4.8-.7,1,.3.1.3.2.4.4.2.7-.9.5-.5,1,0,.8-.1,1.1a1.3,1.3,0,0,1-1,.8,1.2,1.2,0,0,1-1,.1h-.3a25.1,25.1,0,0,0-2.7-.4l-.8.2-.6.6H76l-.4.6h0c0,.1,0,.1-.1.1l-.4,1c-.3,1.2-.2,2.3.1,2.5s1.8.6,2.9,1.2l1.3.6h29.9Z"/><path id="Yeux" class="cls-4" d="M80.7,38.7h.5c-.1.5-.7.6-1.1,1H80c-.2.1-.1.4-.3.4s-.3,0-.5,0a.9.9,0,0,0,.8.4l.2.2h.2V41c-.2.2-.4.1-.6.2H81c.3-.2,0-.7.2-1s0-.1-.1-.1.2-.3.3-.3.3-.1.3-.2-.2-.2-.1-.3.6-.5.5-.8-.5-.2-.8-.3a1.4,1.4,0,0,0-.9.1l-.8.2-1,.5a4.2,4.2,0,0,1,1.2-.3,2.7,2.7,0,0,1,.9,0"/></g></g></svg>